<?xml version="1.0" encoding="UTF-8" standalone="no"?>
<svg
   xmlns:dc="http://purl.org/dc/elements/1.1/"
   xmlns:cc="http://creativecommons.org/ns#"
   xmlns:rdf="http://www.w3.org/1999/02/22-rdf-syntax-ns#"
   xmlns:svg="http://www.w3.org/2000/svg"
   xmlns="http://www.w3.org/2000/svg"
   version="1.1"
   id="svg2"
   fill-rule="evenodd"
   viewBox="0 0 595.276 841.89"
   height="841.89pt"
   width="595.276pt">
  <metadata
     id="metadata72">
    <rdf:RDF>
      <cc:Work
         rdf:about="">
        <dc:format>image/svg+xml</dc:format>
        <dc:type
           rdf:resource="http://purl.org/dc/dcmitype/StillImage" />
        <dc:title></dc:title>
      </cc:Work>
    </rdf:RDF>
  </metadata>
  <defs
     id="defs70" />
  <g
     transform="matrix(1.8847009,0.2363267,-0.23220157,1.9181831,-198.4203,-28.684842)"
     style="stroke:#000000;stroke-opacity:1"
     id="g4">
    <g
       transform="matrix(1.0796512,-0.15799006,0.16299479,1.1291043,-32.659468,30.609737)"
       style="stroke:#000000;stroke-opacity:1"
       id="g6">
      <g
         style="stroke:#000000;stroke-opacity:1"
         id="g8">
        <path
           id="path10"
           d="M 275.796,45.9702 139.901,167.179 269.619,295.169 403.75,173.112 275.796,45.9702 z"
           style="fill:#ffffff;stroke:#000000;stroke-opacity:1" />
        <path
           id="path12"
           d="M 275.152,62.0989 157.669,166.886 269.812,277.535 385.769,172.015 275.152,62.0989 z"
           style="fill:none;stroke:#000000;stroke-opacity:1" />
        <g
           style="stroke:#000000;stroke-opacity:1"
           id="g14">
          <path
             id="path16"
             d="m 275.752,141.53 0,64.168 46.395,0 0,-12.238 -32.947,0 0,-12.9 32.611,0 0,-12.238 -32.611,0 -0.107,-13.982 32.932,0 -0.214,-12.148 -46.059,-0.662 z"
             style="fill:none;stroke:#000000;stroke-opacity:1" />
          <path
             id="path18"
             d="m 275.752,141.481 7.598,-7.083 46.079,0.204 -7.618,7.565"
             style="fill:none;stroke:#000000;stroke-opacity:1" />
          <path
             id="path20"
             d="m 322.147,154.43 8.145,-8.065 -0.104,-12.161"
             style="fill:none;stroke:#000000;stroke-opacity:1" />
          <path
             id="path22"
             d="m 321.811,168.322 8.007,-7.743 -32.305,0.106 -8.313,7.306"
             style="fill:none;stroke:#000000;stroke-opacity:1" />
          <path
             id="path24"
             d="m 321.899,180.869 8.989,-8.909 0,-11.907"
             style="fill:none;stroke:#000000;stroke-opacity:1" />
          <path
             id="path26"
             d="m 297.941,160.665 0,-6.235"
             style="fill:none;stroke:#000000;stroke-opacity:1" />
          <path
             id="path28"
             d="m 321.811,193.46 7.915,-7.427 -33.298,-0.015 -7.228,7.111"
             style="fill:none;stroke:#000000;stroke-opacity:1" />
          <path
             id="path30"
             d="m 322.132,205.923 8.238,-7.604 0,-12.6"
             style="fill:none;stroke:#000000;stroke-opacity:1" />
          <path
             id="path32"
             d="m 296.779,185.928 0,-5.263"
             style="fill:none;stroke:#000000;stroke-opacity:1" />
        </g>
        <g
           style="stroke:#000000;stroke-opacity:1"
           id="g34">
          <path
             id="path36"
             d="m 212.318,141.53 0,64.168 46.395,0 0,-12.238 -32.947,0 0,-12.9 32.611,0 0,-12.238 -32.611,0 -0.107,-13.982 32.932,0 -0.214,-12.148 -46.059,-0.662 z"
             style="fill:none;stroke:#000000;stroke-opacity:1" />
          <path
             id="path38"
             d="m 212.318,141.481 7.598,-7.083 46.08,0.204 -7.619,7.565"
             style="fill:none;stroke:#000000;stroke-opacity:1" />
          <path
             id="path40"
             d="m 258.713,154.43 8.145,-8.065 -0.103,-12.161"
             style="fill:none;stroke:#000000;stroke-opacity:1" />
          <path
             id="path42"
             d="m 258.377,168.322 8.008,-7.743 -32.306,0.106 -8.313,7.306"
             style="fill:none;stroke:#000000;stroke-opacity:1" />
          <path
             id="path44"
             d="m 258.466,180.869 8.989,-8.909 0,-11.907"
             style="fill:none;stroke:#000000;stroke-opacity:1" />
          <path
             id="path46"
             d="m 234.507,160.665 0,-6.235"
             style="fill:none;stroke:#000000;stroke-opacity:1" />
          <path
             id="path48"
             d="m 258.377,193.46 7.916,-7.427 -33.299,-0.015 -7.228,7.111"
             style="fill:none;stroke:#000000;stroke-opacity:1" />
          <path
             id="path50"
             d="m 258.698,205.923 8.239,-7.604 0,-12.6"
             style="fill:none;stroke:#000000;stroke-opacity:1" />
          <path
             id="path52"
             d="m 233.346,185.928 0,-5.263"
             style="fill:none;stroke:#000000;stroke-opacity:1" />
        </g>
        <path
           id="path54"
           d="m 306.744,215.763 0,-33.793 -6.887,6.174 -15.151,0 18.25,-18.522 17.906,0 0,46.791 -14.118,-0.65 z"
           style="fill:#2c2c2b;stroke:#000000;stroke-opacity:1" />
        <path
           id="path56"
           d="m 175.65363,136.10972 2.70731,-2.42551 7.23623,3.86309 -3.49215,-7.21662 2.62877,-2.35616 4.3236,10.50206 -2.80504,2.51268 -10.59872,-4.87954 z m 10.03428,-8.98895 2.59447,-2.32448 7.43199,7.71606 -2.59351,2.32448 -7.43295,-7.71606 z m 14.42503,-4.42358 2.87756,-1.39945 c 0.41216,0.72218 0.64245,1.42503 0.69466,2.1124 0.0512,0.68739 -0.0713,1.34849 -0.36484,1.9833 -0.29256,0.63675 -0.81504,1.28893 -1.5637,1.96041 -0.91084,0.8161 -1.77419,1.3619 -2.58215,1.6344 -0.81285,0.27254 -1.72618,0.29122 -2.7379,0.0521 -1.00877,-0.24015 -1.97584,-0.83651 -2.89809,-1.79499 -1.23035,-1.27731 -1.80839,-2.58975 -1.73033,-3.93441 0.0762,-1.34758 0.78839,-2.62552 2.13648,-3.83283 1.05495,-0.94582 2.07354,-1.4925 3.05679,-1.64101 0.98322,-0.14753 2.01386,0.0533 3.09082,0.60532 l -1.83491,2.51677 c -0.30667,-0.16347 -0.55706,-0.26114 -0.75023,-0.29208 -0.31934,-0.0519 -0.6314,-0.0325 -0.9351,0.0551 -0.30572,0.0896 -0.58662,0.25128 -0.84656,0.48404 -0.5844,0.52391 -0.82568,1.14539 -0.71974,1.85949 0.0761,0.53464 0.44513,1.14886 1.1112,1.83968 0.82524,0.85702 1.53163,1.31478 2.11887,1.38207 0.58929,0.0644 1.13791,-0.13276 1.64672,-0.58834 0.49571,-0.44371 0.74708,-0.907 0.7532,-1.39081 0.008,-0.48287 -0.16656,-1.01927 -0.52275,-1.61116 z m -0.87428,-7.71781 6.93605,-6.21382 1.58643,1.64737 -4.34161,3.89031 1.18232,1.22708 4.02726,-3.60904 1.51578,1.57394 -4.02727,3.60903 1.46398,1.51983 4.46857,-4.00421 1.68345,1.74884 -7.06302,6.32772 -7.43194,-7.71705 z m 8.47259,-7.59048 2.41914,-2.16703 7.26489,1.44207 -4.11118,-4.26867 2.4403,-2.18584 7.43292,7.71704 -2.44029,2.18584 -7.21961,-1.42502 4.08105,4.23678 -2.43427,2.18088 -7.43295,-7.71605 z m 9.14365,-8.192662 7.86906,-7.049849 1.83609,1.906214 -2.64084,2.366278 5.59688,5.809779 -2.58846,2.31954 -5.59683,-5.810746 -2.63981,2.365106 -1.83609,-1.906322 z m 9.03582,-8.095224 6.93605,-6.213918 1.58643,1.647374 -4.34161,3.890312 1.18135,1.226787 4.02823,-3.608848 1.51577,1.574235 -4.02725,3.608738 1.46398,1.519636 4.46855,-4.003621 1.68346,1.748247 -7.06301,6.327742 -7.43195,-7.716684 z"
           style="fill:#ffffff;stroke:#000000;stroke-width:0.97689831;stroke-opacity:1" />
        <path
           id="path58"
           d="m 318.70864,246.6864 -2.927,2.667 0.9,1.686 -2.625,2.393 -4.766,-10.835 2.802,-2.554 11.016,5.138 -2.689,2.45 -1.711,-0.945 z m -2.245,-1.237 -3.755,-2.033 1.922,3.703 1.833,-1.67 z m -0.389,-9.035 3.818,-3.48 c 0.751,-0.684 1.456,-1.139 2.114,-1.368 0.657,-0.224 1.317,-0.293 1.981,-0.202 0.666,0.093 1.305,0.32 1.924,0.682 0.617,0.363 1.194,0.816 1.732,1.361 0.843,0.854 1.396,1.608 1.658,2.263 0.263,0.654 0.372,1.304 0.324,1.949 -0.044,0.644 -0.22,1.207 -0.527,1.689 -0.42,0.658 -0.86,1.197 -1.317,1.613 l -3.817,3.48 -7.89,-7.987 z m 4.356,-0.532 4.31,4.362 0.629,-0.573 c 0.538,-0.491 0.865,-0.894 0.977,-1.216 0.115,-0.32 0.094,-0.683 -0.057,-1.086 -0.154,-0.401 -0.547,-0.922 -1.179,-1.561 -0.836,-0.846 -1.551,-1.294 -2.146,-1.345 -0.597,-0.05 -1.227,0.228 -1.893,0.835 l -0.641,0.584 z m 4.64,-7.668 6.884,-6.274 1.685,1.705 -4.31,3.928 1.255,1.27 3.998,-3.644 1.609,1.629 -3.998,3.644 1.554,1.573 4.435,-4.043 1.788,1.81 -7.01,6.389 -7.89,-7.987 z m 16.317,0.307 -7.89,-7.987 4.282,-3.903 c 0.794,-0.724 1.466,-1.212 2.015,-1.462 0.548,-0.253 1.126,-0.32 1.734,-0.199 0.607,0.119 1.161,0.434 1.662,0.941 0.439,0.445 0.717,0.916 0.839,1.416 0.121,0.501 0.106,1.009 -0.037,1.522 -0.096,0.327 -0.292,0.707 -0.592,1.136 0.403,-0.18 0.723,-0.284 0.962,-0.314 0.157,-0.02 0.432,-0.006 0.823,0.044 0.394,0.051 0.675,0.105 0.851,0.168 l 3.53,1.183 -2.904,2.646 -3.785,-1.191 c -0.484,-0.155 -0.843,-0.22 -1.074,-0.19 -0.305,0.045 -0.577,0.176 -0.811,0.39 l -0.227,0.206 3.202,3.241 -2.58,2.353 z m -2.113,-7.104 1.084,-0.988 c 0.116,-0.106 0.308,-0.348 0.573,-0.727 0.137,-0.189 0.194,-0.4 0.17,-0.632 -0.026,-0.231 -0.124,-0.435 -0.297,-0.61 -0.255,-0.258 -0.535,-0.378 -0.841,-0.36 -0.308,0.016 -0.696,0.238 -1.164,0.665 l -1.129,1.029 1.604,1.623 z"
           style="fill:#ffffff;stroke:#000000;stroke-opacity:1" />
        <path
           id="path60"
           d="m 315.06884,85.429135 2.46143,2.447372 -6.21702,5.766437 3.8371,3.817675 -2.03138,1.88427 -6.29853,-6.264647 8.2484,-7.651107 z m 2.78651,10.708951 c 1.34666,-1.248737 2.75766,-1.859783 4.22997,-1.836105 1.47532,0.02445 2.85789,0.679346 4.14971,1.964278 1.32417,1.318113 1.97668,2.675699 1.95656,4.072971 -0.0202,1.39427 -0.69412,2.71003 -2.02096,3.94026 -0.96417,0.89463 -1.91248,1.47207 -2.84293,1.73232 -0.92946,0.26025 -1.86155,0.25651 -2.79627,-0.0131 -0.93674,-0.27071 -1.84348,-0.84373 -2.72725,-1.723 -0.89691,-0.89213 -1.49265,-1.76926 -1.78621,-2.62938 -0.28956,-0.86017 -0.29658,-1.76814 -0.0221,-2.728916 0.2765,-0.957795 0.89533,-1.884987 1.85949,-2.779208 z m 2.44954,2.458391 c -0.83336,0.773316 -1.28242,1.474813 -1.34911,2.110503 -0.0647,0.63268 0.16,1.20747 0.67411,1.71839 0.52825,0.52578 1.11567,0.76696 1.76028,0.72455 0.6466,-0.0434 1.43219,-0.49125 2.35374,-1.34644 0.77788,-0.72177 1.19318,-1.39692 1.24989,-2.03152 0.0547,-0.631573 -0.17598,-1.20531 -0.69513,-1.721179 -0.49391,-0.492119 -1.07321,-0.720375 -1.73785,-0.680772 -0.66365,0.03859 -1.41662,0.448093 -2.25593,1.226468 z m 11.24156,3.222503 4.0876,4.0666 c 0.88882,0.88421 1.33746,1.7518 1.34088,2.59981 0.006,0.84699 -0.39864,1.64904 -1.20723,2.39911 -0.83336,0.77231 -1.72578,1.1372 -2.67829,1.09065 -0.95152,-0.0466 -1.92369,-0.56292 -2.91554,-1.54911 l -1.34435,-1.33772 -3.06194,2.83955 -2.46953,-2.45759 8.2484,-7.6513 z m -1.04625,5.71867 0.60198,0.59905 c 0.47472,0.47231 0.89024,0.72419 1.25358,0.75659 0.36234,0.0324 0.67728,-0.0757 0.94285,-0.32139 0.25963,-0.24058 0.39678,-0.52796 0.40849,-0.8591 0.0157,-0.33217 -0.20724,-0.72797 -0.6668,-1.18443 l -0.70095,-0.69707 -1.83915,1.70635 z m 9.08104,2.27391 6.58943,6.55488 -1.76187,1.63358 -4.12396,-4.10324 -1.31198,1.21608 3.826,3.8072 -1.68257,1.56078 -3.82601,-3.80718 -1.6241,1.5072 4.24515,4.22304 -1.86888,1.73366 -6.70962,-6.67469 8.24841,-7.65131 z m 7.83278,7.79158 6.96011,6.92322 -1.6479,1.52844 -9.29007,0.0403 4.62494,4.60129 -1.77276,1.64368 -7.55099,-7.51136 1.71132,-1.58708 9.18805,-0.0413 -3.98456,-3.96361 1.76186,-1.63359 z"
           style="fill:#ffffff;stroke:#000000;stroke-width:1;stroke-opacity:1" />
        <path
           id="path62"
           d="m 181.26271,191.27703 6.61613,6.52691 -1.75392,1.64102 -4.14231,-4.08572 -1.3058,1.22262 3.84206,3.78895 -1.67595,1.5679 -3.84208,-3.78995 -1.61871,1.51409 4.264,4.20501 -1.86151,1.74155 -6.73784,-6.64621 8.21593,-7.68617 z m 8.10001,7.99004 3.66965,3.61937 c 0.72116,0.71185 1.20471,1.38307 1.45065,2.01165 0.24191,0.62763 0.3209,1.26158 0.23495,1.90086 -0.0889,0.64033 -0.31721,1.25762 -0.68576,1.8569 -0.37057,0.59731 -0.83569,1.15696 -1.39632,1.68096 -0.87745,0.82151 -1.65585,1.36359 -2.33524,1.62324 -0.67736,0.26163 -1.35282,0.37521 -2.02342,0.33771 -0.67153,-0.0325 -1.25988,-0.19417 -1.76602,-0.48303 -0.68966,-0.39427 -1.25559,-0.80929 -1.69577,-1.2421 l -3.66866,-3.62039 8.21594,-7.68517 z m 0.60824,4.1768 -4.48797,4.19801 0.60451,0.59649 c 0.51727,0.50972 0.94169,0.81874 1.27719,0.922 0.33452,0.10527 0.71322,0.0809 1.13012,-0.07 0.41488,-0.15289 0.95348,-0.53756 1.61083,-1.15294 0.87055,-0.81441 1.32778,-1.50696 1.37368,-2.07867 0.0439,-0.57468 -0.25269,-1.17654 -0.89269,-1.80753 l -0.61567,-0.60734 z m 13.24372,9.48532 2.4657,2.43231 -4.89856,4.58286 c -0.4866,0.45494 -1.01765,0.8085 -1.59702,1.06873 -0.57841,0.25722 -1.18668,0.38385 -1.82485,0.37589 -0.63817,-0.007 -1.19384,-0.12109 -1.67098,-0.33936 -0.66235,-0.30264 -1.32824,-0.78426 -2.00273,-1.44877 -0.38847,-0.38353 -0.78579,-0.82695 -1.18802,-1.3343 -0.4052,-0.50531 -0.67706,-0.98751 -0.81959,-1.44753 -0.14253,-0.46003 -0.18764,-0.96144 -0.13928,-1.50118 0.0504,-0.53877 0.18975,-1.00679 0.42113,-1.40511 0.36998,-0.6393 0.75581,-1.14782 1.15952,-1.52458 l 4.89956,-4.58287 2.46469,2.43132 -5.01502,4.69252 c -0.45009,0.42042 -0.67877,0.86771 -0.68911,1.3379 -0.0113,0.47521 0.19711,0.9243 0.62816,1.34824 0.42397,0.41803 0.88304,0.63155 1.37318,0.63761 0.48713,0.006 0.96218,-0.20566 1.4172,-0.63115 l 5.01602,-4.69253 z m 1.77578,14.93534 -2.81359,-2.77442 -1.74261,0.88678 -2.52351,-2.4885 11.21919,-4.72443 2.6929,2.65612 -5.21064,10.64989 -2.58537,-2.54863 0.96363,-1.65681 z m 1.26035,-2.17208 2.06971,-3.63469 -3.83251,1.89649 1.7628,1.7382 z m 1.18397,7.18895 8.21593,-7.68618 4.11593,4.0601 c 0.76275,0.75327 1.27985,1.392 1.5463,1.91528 0.27044,0.52322 0.34729,1.07719 0.22958,1.66292 -0.11673,0.58471 -0.43717,1.1203 -0.9593,1.60875 -0.45798,0.42853 -0.94416,0.70145 -1.46345,0.82582 -0.52032,0.12238 -1.04847,0.11586 -1.58538,-0.0155 -0.34127,-0.0872 -0.73891,-0.27056 -1.18996,-0.5532 0.19248,0.38531 0.30482,0.69075 0.34006,0.91927 0.0221,0.15071 0.0109,0.41589 -0.0368,0.7916 -0.0486,0.37873 -0.10179,0.65051 -0.16439,0.82042 l -1.18688,3.40515 -2.79128,-2.75273 1.19239,-3.65126 c 0.1554,-0.46725 0.21952,-0.81219 0.18437,-1.03371 -0.0502,-0.29332 -0.18984,-0.55237 -0.41501,-0.7742 l -0.21806,-0.21493 -3.33414,3.11955 -2.47992,-2.44711 z m 7.36763,-2.1256 1.04167,1.02835 c 0.11257,0.11041 0.36616,0.29084 0.76473,0.54022 0.19785,0.1292 0.41861,0.18108 0.66026,0.15466 0.23962,-0.0284 0.45127,-0.12541 0.63091,-0.29297 0.2655,-0.24879 0.38668,-0.51953 0.36451,-0.81325 -0.0202,-0.29574 -0.25643,-0.66443 -0.70678,-1.1091 l -1.08526,-1.06973 -1.67004,1.56182 z m 9.53253,3.00525 3.66966,3.62037 c 0.72216,0.71184 1.20472,1.38307 1.45065,2.01165 0.24191,0.62763 0.3219,1.26156 0.23495,1.90086 -0.0879,0.64031 -0.31621,1.25761 -0.68576,1.8569 -0.37057,0.59731 -0.83569,1.15696 -1.39532,1.68094 -0.87845,0.82153 -1.65585,1.3636 -2.33524,1.62325 -0.67736,0.26162 -1.35282,0.3752 -2.02442,0.33771 -0.67154,-0.0335 -1.25987,-0.19417 -1.76502,-0.48304 -0.69065,-0.39425 -1.25659,-0.80928 -1.69578,-1.2431 l -3.66965,-3.61937 8.21593,-7.68617 z m 0.60824,4.1768 -4.48796,4.199 0.60451,0.5965 c 0.51727,0.50972 0.94168,0.81774 1.27819,0.92198 0.33453,0.10527 0.71222,0.0809 1.12912,-0.07 0.41588,-0.15291 0.95348,-0.53756 1.61183,-1.15295 0.87055,-0.81442 1.32778,-1.50697 1.37267,-2.07966 0.0449,-0.57369 -0.25268,-1.17554 -0.89268,-1.80653 l -0.61568,-0.60834 z m 3.61925,7.89751 c 1.34137,-1.25413 2.75077,-1.87116 4.22216,-1.854 1.4754,0.0181 2.86074,0.66753 4.15801,1.94728 1.33072,1.31228 1.98797,2.6661 1.97376,4.06345 -0.0142,1.39434 -0.68261,2.71394 -2.00424,3.94979 -0.96036,0.8987 -1.90622,1.48015 -2.83457,1.74433 -0.92935,0.2642 -1.86145,0.2634 -2.7973,-10e-4 -0.93789,-0.26774 -1.84704,-0.83692 -2.73452,-1.71143 -0.90069,-0.88933 -1.49913,-1.76294 -1.79633,-2.62182 -0.29419,-0.85891 -0.30507,-1.76785 -0.0347,-2.72878 0.27244,-0.95896 0.88733,-1.88876 1.84769,-2.78746 z m 2.45994,2.4484 c -0.83008,0.77684 -1.27617,1.47923 -1.34017,2.1152 -0.062,0.63394 0.16513,1.20778 0.68139,1.71651 0.53046,0.52254 1.11891,0.76223 1.76334,0.71709 0.64641,-0.0462 1.43009,-0.49731 2.34801,-1.3564 0.77581,-0.72506 1.18725,-1.40296 1.24126,-2.03779 0.053,-0.63181 -0.18107,-1.20355 -0.7024,-1.71722 -0.49599,-0.49002 -1.07625,-0.71582 -1.74073,-0.67441 -0.66348,0.0414 -1.41471,0.45409 -2.2507,1.23702 z"
           style="fill:#ffffff;stroke:#000000;stroke-opacity:1" />
        <path
           id="path64"
           d="m 277.662,216.413 0,-32.884 9.795,-0.329 12.734,-13.483 -49.956,0 0.327,13.483 15.019,0 0,33.213 12.081,0 z"
           style="fill:#2c2c2b;stroke:#000000;stroke-opacity:1" />
        <path
           id="path66"
           d="m 217.955,215.63 0,-13.267 15.339,0.918 c 0.626,0.038 1.135,-0.146 1.472,-0.437 0.343,-0.298 0.517,-0.695 0.517,-1.193 0,-0.332 -0.073,-0.601 -0.204,-0.846 -0.128,-0.238 -0.356,-0.485 -0.709,-0.709 l -1.879,-1.193 c -4.088,-2.594 -11.621,-8.397 -12.82,-10.239 -1.198,-1.842 -1.798,-4.122 -1.798,-6.825 0,-3.865 1.254,-6.885 3.746,-9.059 2.507,-2.16 6.008,-3.247 10.503,-3.247 l 15.692,0 0.184,13.912 -13.971,-0.552 c -0.502,-0.019 -0.92,0.16 -1.239,0.484 -0.32,0.324 -0.477,0.74 -0.477,1.238 0,0.272 0.087,0.51 0.245,0.755 0.155,0.238 0.386,0.431 0.668,0.619 l 1.648,1.102 c 0.027,0 0.079,0.034 0.163,0.091 6.809,4.548 14.809,10.496 14.809,15.312 0,2.174 -0.449,4.198 -1.362,6.055 -0.899,1.857 -2.166,3.382 -3.787,4.56 -1.28,0.89 -2.725,1.525 -4.359,1.917 -1.621,0.408 -4.141,0.604 -7.574,0.604 l -1.008,0 -13.799,0 z"
           style="fill:#2c2c2b;stroke:#000000;stroke-opacity:1" />
      </g>
    </g>
  </g>
</svg>
